<?xml version="1.0" encoding="UTF-8"?>
<svg width="24" height="24" viewBox="0 0 24 24" fill="none" xmlns="http://www.w3.org/2000/svg">
  <path d="M 2 10 L 3 12 L 5 12 L 4 13 L 4.5 15 L 2 14 L 0 15 L 0.5 13 L -1 12 L 1 12 Z" fill="black"/>
  <path d="M 6.5 10 L 7.5 12 L 9.5 12 L 8.5 13 L 9 15 L 6.5 14 L 4.5 15 L 5 13 L 3.5 12 L 5.5 12 Z" fill="black"/>
  <path d="M 11 10 L 12 12 L 14 12 L 13 13 L 13.5 15 L 11 14 L 9 15 L 9.5 13 L 8 12 L 10 12 Z" fill="black"/>
  <path d="M 15.5 10 L 16.5 12 L 18.5 12 L 17.5 13 L 18 15 L 15.5 14 L 13.5 15 L 14 13 L 12.5 12 L 14.5 12 Z" fill="black"/>
  <path d="M 20 10 L 21 12 L 23 12 L 22 13 L 22.5 15 L 20 14 L 18 15 L 18.5 13 L 17 12 L 19 12 Z" fill="black"/>
</svg>

