<?xml version="1.0" encoding="UTF-8"?>
<svg width="24" height="24" viewBox="0 0 24 24" fill="none" xmlns="http://www.w3.org/2000/svg">
  <path d="M 3 9 L 4 11 L 6 11 L 5 12 L 5.5 14 L 3 13 L 1 14 L 1.5 12 L 0 11 L 2 11 Z" fill="black"/>
  <path d="M 8 9 L 9 11 L 11 11 L 10 12 L 10.5 14 L 8 13 L 6 14 L 6.5 12 L 5 11 L 7 11 Z" fill="black"/>
  <path d="M 13 9 L 14 11 L 16 11 L 15 12 L 15.5 14 L 13 13 L 11 14 L 11.5 12 L 10 11 L 12 11 Z" fill="black"/>
  <path d="M 18 9 L 19 11 L 21 11 L 20 12 L 20.5 14 L 18 13 L 16 14 L 16.5 12 L 15 11 L 17 11 Z" fill="black"/>
  <path d="M 23 9 L 24 11 L 26 11 L 25 12 L 25.5 14 L 23 13 L 21 14 L 21.5 12 L 20 11 L 22 11 Z" fill="black"/>
</svg>

